<svg enable-background="new 0 0 520 520" height="512" viewBox="0 0 520 520" width="512" xmlns="http://www.w3.org/2000/svg"><g id="_x32_15_x2C__Add_x2C__Estate_x2C__Real"><g><path d="m260 254.444c-20.831 0-37.778 16.947-37.778 37.778 0 20.83 16.947 37.777 37.778 37.777 20.83 0 37.777-16.947 37.777-37.777s-16.947-37.778-37.777-37.778zm0 55.556c-9.803 0-17.778-7.975-17.778-17.777s7.975-17.778 17.778-17.778 17.777 7.976 17.777 17.778-7.974 17.777-17.777 17.777z"/><path d="m490 480h-106.667v-197.982l41.12 27.414c4.575 3.05 10.791 1.842 13.867-2.773 3.063-4.595 1.822-10.804-2.773-13.867-10.14-6.76-160.758-107.172-170-113.333-3.359-2.239-7.735-2.239-11.094 0-18.063 12.042-152.515 101.677-170 113.333-4.596 3.063-5.837 9.272-2.773 13.867 3.072 4.608 9.285 5.829 13.867 2.773l41.119-27.413v197.981h-106.666c-5.523 0-10 4.478-10 10s4.477 10 10 10h460c5.522 0 10-4.478 10-10s-4.478-10-10-10zm-210 0h-50v-45c0-13.785 11.215-25 25-25s25 11.215 25 25zm20 0v-45c0-24.813-20.187-45-45-45s-45 20.187-45 45v45h-53.334v-211.315l103.334-68.889 103.333 68.888v211.316z"/><path d="m410 400c0 16.542 13.458 30 30 30s30-13.458 30-30-13.458-30-30-30-30 13.458-30 30zm40 0c0 5.514-4.486 10-10 10s-10-4.486-10-10 4.486-10 10-10 10 4.486 10 10z"/><path d="m140 140c16.542 0 30-13.458 30-30s-13.458-30-30-30-30 13.458-30 30 13.458 30 30 30zm0-40c5.514 0 10 4.486 10 10s-4.486 10-10 10-10-4.486-10-10 4.486-10 10-10z"/><path d="m70 400c16.542 0 30-13.458 30-30s-13.458-30-30-30-30 13.458-30 30 13.458 30 30 30zm0-40c5.514 0 10 4.486 10 10s-4.486 10-10 10-10-4.486-10-10 4.486-10 10-10z"/><path d="m400 220c55.141 0 100-44.86 100-100s-44.859-100-100-100-100 44.86-100 100 44.859 100 100 100zm0-180c44.112 0 80 35.888 80 80s-35.888 80-80 80-80-35.888-80-80 35.888-80 80-80z"/><path d="m360 130h30v30c0 5.523 4.478 10 10 10s10-4.477 10-10v-30h30c5.522 0 10-4.477 10-10s-4.478-10-10-10h-30v-30c0-5.523-4.478-10-10-10s-10 4.477-10 10v30h-30c-5.522 0-10 4.477-10 10s4.478 10 10 10z"/></g></g></svg>