<svg id="Capa_1" enable-background="new 0 0 511.983 511.983" height="512" viewBox="0 0 511.983 511.983" width="512" xmlns="http://www.w3.org/2000/svg"><path id="XMLID_1603_" d="m488.265 264.692c-7.612-28.41-25.798-52.135-51.207-66.805-11.825-6.827-24.406-11.194-37.146-13.276v-110.649c0-2.653-1.055-5.198-2.931-7.073l-64-63.962c-1.876-1.874-4.418-2.927-7.069-2.927h-296c-5.522 0-10 4.477-10 10v491.962c0 5.523 4.478 10 10 10h310.966c.428.008.855.021 1.283.021 6.091 0 12.227-.802 18.271-2.422 18.078-4.844 33.176-16.417 42.512-32.587l74.377-128.823c14.67-25.409 18.557-55.048 10.944-83.459zm-152.353-230.56 29.848 29.83h-29.848zm-296-14.132h276v53.962c0 5.523 4.478 10 10 10h54v99.237c-37.222.788-73.181 20.422-93.116 54.951l-4.51 7.812h-180.374c-5.522 0-10 4.477-10 10s4.478 10 10 10h168.827l-25.404 44h-143.423c-5.522 0-10 4.477-10 10s4.478 10 10 10h131.876l-25.404 44h-106.472c-5.522 0-10 4.477-10 10s4.478 10 10 10h94.925l-.072.125c-8.271 14.326-3.344 32.71 10.981 40.98 6.938 4.006 15.021 5.07 22.765 2.997 7.739-2.074 14.209-7.038 18.216-13.978l90.029-155.936c13.784-23.876 44.424-32.087 68.302-18.301 23.876 13.785 32.086 44.425 18.301 68.301l-74.376 128.823c-1.331 2.306-3.488 3.958-6.074 4.65-2.588.694-5.28.341-7.586-.99-2.306-1.332-3.958-3.489-4.65-6.075s-.341-5.28.99-7.586l70.702-122.46c8.271-14.326 3.345-32.709-10.981-40.98-14.325-8.271-32.708-3.345-40.98 10.98l-70.702 122.459c-16.287 28.211-10.642 63.165 11.61 84.988h-253.4zm420.089 318.15-74.377 128.823c-6.665 11.544-17.449 19.808-30.367 23.269-12.921 3.461-26.391 1.697-37.934-4.968-23.876-13.785-32.087-44.425-18.302-68.301l70.702-122.459c1.851-3.205 5.219-4.998 8.677-4.998 1.695 0 3.413.431 4.983 1.337 4.775 2.757 6.418 8.885 3.661 13.66l-70.702 122.459c-4.003 6.932-5.064 15.016-2.988 22.763 2.075 7.746 7.036 14.216 13.969 18.219 6.934 4.004 15.019 5.063 22.763 2.988 7.746-2.076 14.216-7.037 18.218-13.969l74.376-128.823c19.299-33.427 7.806-76.323-25.621-95.622-33.428-19.299-76.322-7.805-95.622 25.622l-90.029 155.936c-1.336 2.313-3.492 3.968-6.072 4.66-2.578.691-5.273.337-7.588-.999-4.775-2.757-6.418-8.885-3.661-13.661l90.03-155.936c24.813-42.978 79.967-57.753 122.942-32.942 42.977 24.813 57.755 79.965 32.942 122.942z"/><path id="XMLID_1614_" d="m146.912 137.962h171c5.522 0 10-4.477 10-10s-4.478-10-10-10h-171c-5.522 0-10 4.477-10 10s4.477 10 10 10z"/><path id="XMLID_1615_" d="m101.915 137.962c2.63 0 5.2-1.07 7.07-2.93 1.86-1.86 2.93-4.44 2.93-7.07s-1.069-5.21-2.93-7.07c-1.86-1.86-4.44-2.93-7.07-2.93-2.64 0-5.22 1.07-7.08 2.93-1.859 1.86-2.92 4.44-2.92 7.07s1.061 5.21 2.92 7.07c1.87 1.86 4.44 2.93 7.08 2.93z"/><path id="XMLID_1640_" d="m101.912 201.962h183.334c5.522 0 10-4.477 10-10s-4.478-10-10-10h-183.334c-5.522 0-10 4.477-10 10s4.477 10 10 10z"/></svg>