<svg height="512" viewBox="0 0 32 32" width="512" xmlns="http://www.w3.org/2000/svg"><g id="Layer_12" data-name="Layer 12"><path d="m22.52 15.68v-15.46h-13v20.86l-8.52 3.51v7.27h30v-19.69zm-12-14.46h11v29.64h-11zm-8.52 24.03 7.5-3.1v8.7h-7.5zm28 5.61h-7.5v-14.09l7.5-3.1z"/><path d="m23.44 18.39h2.38v1h-2.38z"/><path d="m26.44 18.39h2.38v1h-2.38z"/><path d="m23.44 20.8h2.38v1h-2.38z"/><path d="m26.44 20.8h2.38v1h-2.38z"/><path d="m23.44 23.2h2.38v1h-2.38z"/><path d="m26.44 23.2h2.38v1h-2.38z"/><path d="m23.44 25.61h2.38v1h-2.38z"/><path d="m26.44 25.61h2.38v1h-2.38z"/><path d="m3.19 25.63h2.38v1h-2.38z"/><path d="m6.19 25.63h2.38v1h-2.38z"/><path d="m3.19 28.03h2.38v1h-2.38z"/><path d="m6.19 28.03h2.38v1h-2.38z"/><path d="m11 2.45h2.38v1h-2.38z"/><path d="m11 4.86h2.38v1h-2.38z"/><path d="m11 7.27h2.38v1h-2.38z"/><path d="m11 9.67h2.38v1h-2.38z"/><path d="m14.81 2.45h2.38v1h-2.38z"/><path d="m14.81 4.86h2.38v1h-2.38z"/><path d="m14.81 7.27h2.38v1h-2.38z"/><path d="m14.81 9.67h2.38v1h-2.38z"/><path d="m18.63 4.86h2.38v1h-2.38z"/><path d="m18.63 2.45h2.38v1h-2.38z"/><path d="m18.63 7.27h2.38v1h-2.38z"/><path d="m18.63 9.67h2.38v1h-2.38z"/><path d="m11 11.77h2.38v1h-2.38z"/><path d="m11 14.17h2.38v1h-2.38z"/><path d="m11 16.58h2.38v1h-2.38z"/><path d="m11 18.98h2.38v1h-2.38z"/><path d="m14.81 11.77h2.38v1h-2.38z"/><path d="m14.81 14.17h2.38v1h-2.38z"/><path d="m14.81 16.58h2.38v1h-2.38z"/><path d="m14.81 18.98h2.38v1h-2.38z"/><path d="m18.63 14.17h2.38v1h-2.38z"/><path d="m18.63 11.77h2.38v1h-2.38z"/><path d="m18.63 16.58h2.38v1h-2.38z"/><path d="m18.63 18.98h2.38v1h-2.38z"/><path d="m11 21.08h2.38v1h-2.38z"/><path d="m11 23.48h2.38v1h-2.38z"/><path d="m11 25.89h2.38v1h-2.38z"/><path d="m11 28.3h2.38v1h-2.38z"/><path d="m14.81 21.08h2.38v1h-2.38z"/><path d="m14.81 23.48h2.38v1h-2.38z"/><path d="m14.81 25.89h2.38v1h-2.38z"/><path d="m14.81 28.3h2.38v1h-2.38z"/><path d="m18.63 23.48h2.38v1h-2.38z"/><path d="m18.63 21.08h2.38v1h-2.38z"/><path d="m18.63 25.89h2.38v1h-2.38z"/><path d="m18.63 28.3h2.38v1h-2.38z"/></g></svg>