<svg id="Layer_1" enable-background="new 0 0 1580 1580" height="512" viewBox="0 0 1580 1580" width="512" xmlns="http://www.w3.org/2000/svg"><g><g><path d="m814.2 1372.3h-768.2c-13.2 0-24-10.7-24-23.9-.2-60.7 2.4-212.3 29.8-310.1 7.4-26.3 16.3-47.8 28.2-67.6 10-16.8 38.9-58.9 90.7-88 47.8-26.9 93.6-30.9 123.6-29.5 4.7.2 9.2 1.8 13 4.6l119.6 87.2 126.5-87.6c3.7-2.6 8.1-4 12.6-4.2 30-1.4 75.8 2.6 123.6 29.5 51.8 29.1 80.6 71.3 90.7 88 11.9 19.9 20.8 41.3 28.2 67.6 27.4 97.8 29.9 249.5 29.8 310.1-.2 13.2-10.9 23.9-24.1 23.9zm-385.1-48h361c-.6-62.7-4.9-191.2-27.9-273.1-6.3-22.4-13.4-39.6-23.2-55.9-8-13.5-31.3-47.3-73-70.8-34.5-19.4-67.6-23.8-91.1-23.6l-134.7 93.3c-8.4 5.8-19.6 5.7-27.8-.3l-127.4-93c-.4 0-.8 0-1.1 0-23.4 0-55.9 4.6-89.7 23.6-41.7 23.5-64.9 57.3-73 70.8-9.8 16.3-16.9 33.6-23.2 55.9-23 81.9-27.2 210.4-27.9 273.1z"/><g><path d="m188.4 1372.3c-13.3 0-24-10.7-24-24v-200c0-13.3 10.7-24 24-24s24 10.7 24 24v200c0 13.3-10.8 24-24 24z"/><path d="m671.8 1372.3c-13.3 0-24-10.7-24-24v-200c0-13.3 10.7-24 24-24s24 10.7 24 24v200c0 13.3-10.7 24-24 24z"/></g><g><path d="m343.9 1056.5c-6.5 0-13-2.6-17.7-7.8l-131.4-142.8c-9-9.8-8.3-24.9 1.4-33.9 9.8-9 24.9-8.3 33.9 1.4l117.2 127.4 65.4-46c10.8-7.6 25.8-5 33.4 5.8s5 25.8-5.8 33.4l-82.7 58.1c-4.1 3-8.9 4.4-13.7 4.4z"/><path d="m509.2 1056.5c-4.8 0-9.6-1.4-13.8-4.4l-82.6-58.1c-10.8-7.6-13.5-22.6-5.8-33.4s22.6-13.5 33.4-5.8l65.4 46 117.2-127.4c9-9.8 24.2-10.4 33.9-1.4s10.4 24.2 1.4 33.9l-131.4 142.9c-4.7 5-11.2 7.7-17.7 7.7z"/></g><g><path d="m457.7 1099.5h-62.4c-10.5 0-19.8-6.8-22.9-16.9l-20.2-65.1c-3.9-12.7 3.2-26.1 15.8-30 12.7-3.9 26.1 3.2 30 15.8l14.9 48.2h27.6l16.6-47.5c4.4-12.5 18-19.1 30.6-14.8 12.5 4.4 19.1 18.1 14.8 30.6l-22.2 63.6c-3.3 9.7-12.3 16.1-22.6 16.1z"/><path d="m366.7 1372.3c-.8 0-1.7 0-2.5-.1-13.2-1.4-22.7-13.2-21.4-26.4l28.7-272.8c1.4-13.2 13.2-22.7 26.4-21.4 13.2 1.4 22.7 13.2 21.4 26.4l-28.7 272.8c-1.4 12.4-11.8 21.5-23.9 21.5z"/><path d="m486.4 1372.3c-12.1 0-22.5-9.2-23.8-21.5l-28.7-272.8c-1.4-13.2 8.2-25 21.4-26.4s25 8.2 26.4 21.4l28.7 272.8c1.4 13.2-8.2 25-21.4 26.4-.9.1-1.7.1-2.6.1z"/></g><g><g><path d="m431.2 873.8c-54.1 0-104.8-23.2-142.8-65.2-37.4-41.4-58-96.2-58-154.5v-82.7c0-8.1 4-15.6 10.8-20 .1-.1 19.6-13.2 40.6-36.5 8-8.8 21-10.6 30.9-4 .2.1 26.5 16.8 69.3 25.2 56.8 11.2 114.5 3.2 171.4-23.6 9.4-4.4 20.5-2.3 27.7 5.2.2.2 20.8 21.8 39.4 33.3 7.1 4.4 11.4 12.1 11.4 20.4v82.7c0 58.2-20.6 113.1-58 154.5-37.9 42.1-88.7 65.2-142.7 65.2zm-152.8-290.2v70.6c0 94.7 68.5 171.7 152.8 171.7s152.8-77 152.8-171.7v-70c-9.6-7.1-18.6-15-25.4-21.3-77.3 32.2-144.4 28.9-188.2 20-29-5.9-51.6-15-66.1-22-10.1 9.9-19.3 17.5-25.9 22.7z"/><path d="m254.4 595.5c-9.3 0-18.1-5.4-22-14.5-9.7-22.4-11.2-46.3-12.5-67.3-1.1-17.2-2.4-38.6 2.6-59.5 4.4-18.3 15.1-37.8 32.9-59.5 2.8-3.4 5.7-6.7 8.6-9.9 47.8-51.1 126.4-71.2 141.7-74.7 29.9-6.9 58.6-9.3 85.2-7.3 18.7 1.4 34.6 4 48.5 7.9 19.3 5.4 34.4 15.9 43.7 30.3 4.7 7.2 7.5 14.5 9.9 20.9 2.1 5.5 4.1 10.7 6.5 13.5 3.5 4.1 8.2 7.8 13.6 12.1 6.1 4.8 13 10.2 19.3 17.3 15 17 32.1 45.4 34.7 74.1 2.4 26.8-8.1 50-17.5 67.2-.2.4-.8 1.6-1.6 3.1-16.1 31.1-19.7 36-23.9 39.9-9.8 8.9-25 8.3-33.9-1.5-8.3-9.1-8.3-22.9-.3-32 1.4-2.1 5.2-8.6 15.5-28.5 1.1-2.1 1.8-3.6 2.1-4.1 6.2-11.3 13.1-26 11.8-39.8-1.2-13.7-10.6-32.9-22.8-46.7-3.4-3.9-8.1-7.6-13.1-11.5-6.5-5.1-13.9-11-20.5-18.8-7.6-9-11.5-19.1-14.7-27.2-1.8-4.7-3.5-9.1-5.5-12.1-3.6-5.6-10.9-8.6-16.4-10.1-10.9-3-23.7-5.1-39.2-6.3-21.7-1.7-45.5.4-70.7 6.2-35.6 8.2-87.7 29-117.4 60.7-2.2 2.4-4.5 4.9-6.6 7.5-16 19.6-21.6 32.7-23.4 40.3-3.3 13.9-2.3 30.7-1.4 45.4 1.1 18 2.3 36.6 8.6 51.3 5.3 12.2-.3 26.3-12.5 31.6-2.9 1.3-6.1 2-9.3 2zm337.3-41.8s0 .1 0 0z"/></g><g><path d="m567.1 901.1c-9.9 0-19.2-6.2-22.7-16.1l-24.8-70.8c-4.4-12.5 2.2-26.2 14.7-30.6s26.2 2.2 30.6 14.7l24.8 70.8c4.4 12.5-2.2 26.2-14.7 30.6-2.6.9-5.3 1.4-7.9 1.4z"/><path d="m293.1 901.1c-2.8 0-5.6-.5-8.4-1.5-12.4-4.6-18.7-18.4-14.1-30.9l26.5-71.2c4.6-12.4 18.4-18.7 30.9-14.1 12.4 4.6 18.7 18.4 14.1 30.9l-26.5 71.2c-3.6 9.6-12.8 15.6-22.5 15.6z"/></g></g></g><g><g><g><path d="m931 361.6h-50.2c-4.6 0-8.3-3.7-8.3-8.3v-50.2c0-4.6 3.7-8.3 8.3-8.3h50.2c4.6 0 8.3 3.7 8.3 8.3v50.2c0 4.6-3.7 8.3-8.3 8.3z"/><path d="m931.4 483.7h-50.2c-4.6 0-8.3-3.7-8.3-8.3v-50.2c0-4.6 3.7-8.3 8.3-8.3h50.2c4.6 0 8.3 3.7 8.3 8.3v50.2c0 4.6-3.7 8.3-8.3 8.3z"/><path d="m931.8 605.9h-50.2c-4.6 0-8.3-3.7-8.3-8.3v-50.2c0-4.6 3.7-8.3 8.3-8.3h50.2c4.6 0 8.3 3.7 8.3 8.3v50.2c0 4.6-3.7 8.3-8.3 8.3z"/><path d="m932.2 728.1h-50.2c-4.6 0-8.3-3.7-8.3-8.3v-50.2c0-4.6 3.7-8.3 8.3-8.3h50.2c4.6 0 8.3 3.7 8.3 8.3v50.2c0 4.5-3.7 8.3-8.3 8.3z"/></g><g><path d="m931 858h-50.2c-4.6 0-8.3-3.7-8.3-8.3v-50.2c0-4.6 3.7-8.3 8.3-8.3h50.2c4.6 0 8.3 3.7 8.3 8.3v50.2c0 4.5-3.7 8.3-8.3 8.3z"/><path d="m931.4 980.1h-50.2c-4.6 0-8.3-3.7-8.3-8.3v-50.2c0-4.6 3.7-8.3 8.3-8.3h50.2c4.6 0 8.3 3.7 8.3 8.3v50.2c0 4.6-3.7 8.3-8.3 8.3z"/><path d="m931.8 1102.3h-50.2c-4.6 0-8.3-3.7-8.3-8.3v-50.2c0-4.6 3.7-8.3 8.3-8.3h50.2c4.6 0 8.3 3.7 8.3 8.3v50.2c0 4.6-3.7 8.3-8.3 8.3z"/></g></g><g><g><path d="m1426.5 546.9h-50.2c-4.6 0-8.3-3.7-8.3-8.3v-50.2c0-4.6 3.7-8.3 8.3-8.3h50.2c4.6 0 8.3 3.7 8.3 8.3v50.2c-.1 4.6-3.8 8.3-8.3 8.3z"/><path d="m1426.9 669.1h-50.2c-4.6 0-8.3-3.7-8.3-8.3v-50.2c0-4.6 3.7-8.3 8.3-8.3h50.2c4.6 0 8.3 3.7 8.3 8.3v50.2c0 4.6-3.7 8.3-8.3 8.3z"/><path d="m1427.3 791.2h-50.2c-4.6 0-8.3-3.7-8.3-8.3v-50.2c0-4.6 3.7-8.3 8.3-8.3h50.2c4.6 0 8.3 3.7 8.3 8.3v50.3c0 4.5-3.7 8.2-8.3 8.2z"/><path d="m1427.7 913.4h-50.2c-4.6 0-8.3-3.7-8.3-8.3v-50.1c0-4.6 3.7-8.3 8.3-8.3h50.2c4.6 0 8.3 3.7 8.3 8.3v50.2c0 4.5-3.7 8.2-8.3 8.2z"/></g><g><path d="m1426.5 1043.3h-50.2c-4.6 0-8.3-3.7-8.3-8.3v-50.2c0-4.6 3.7-8.3 8.3-8.3h50.2c4.6 0 8.3 3.7 8.3 8.3v50.2c-.1 4.6-3.8 8.3-8.3 8.3z"/><path d="m1426.9 1165.5h-50.2c-4.6 0-8.3-3.7-8.3-8.3v-50.2c0-4.6 3.7-8.3 8.3-8.3h50.2c4.6 0 8.3 3.7 8.3 8.3v50.2c0 4.6-3.7 8.3-8.3 8.3z"/></g></g><path d="m758.2 1004.6c-13.3 0-24-10.7-24-24v-748.9c0-13.3 10.7-24 24-24h296.7c13.3 0 24 10.7 24 24v358.5c0 13.3-10.7 24-24 24s-24-10.7-24-24v-334.5h-248.7v724.9c0 13.2-10.8 24-24 24z"/><path d="m1007.1 1273.1h-195.1c-13.3 0-24-10.7-24-24s10.7-24 24-24h195.1c13.3 0 24 10.7 24 24s-10.8 24-24 24z"/><path d="m1534 1273.1h-230.2c-13.3 0-24-10.7-24-24s10.7-24 24-24h206.2v-781.5h-232.3v146.7c0 13.3-10.7 24-24 24s-24-10.7-24-24v-170.7c0-13.3 10.7-24 24-24h280.3c13.3 0 24 10.7 24 24v829.4c0 13.3-10.7 24.1-24 24.1z"/><path d="m1303.8 1273.1h-296.7c-13.3 0-24-10.7-24-24v-658.7c0-13.3 10.7-24 24-24h296.7c13.3 0 24 10.7 24 24v658.7c0 13.2-10.8 24-24 24zm-272.7-48h248.7v-610.7h-248.7z"/><g><g><path d="m1125.9 715.9h-50.2c-4.6 0-8.3-3.7-8.3-8.3v-50.2c0-4.6 3.7-8.3 8.3-8.3h50.2c4.6 0 8.3 3.7 8.3 8.3v50.2c0 4.6-3.7 8.3-8.3 8.3z"/><path d="m1126.3 838h-50.2c-4.6 0-8.3-3.7-8.3-8.3v-50.2c0-4.6 3.7-8.3 8.3-8.3h50.2c4.6 0 8.3 3.7 8.3 8.3v50.2c0 4.6-3.7 8.3-8.3 8.3z"/><path d="m1126.7 960.2h-50.2c-4.6 0-8.3-3.7-8.3-8.3v-50.2c0-4.6 3.7-8.3 8.3-8.3h50.2c4.6 0 8.3 3.7 8.3 8.3v50.2c0 4.6-3.7 8.3-8.3 8.3z"/></g><g><path d="m1234.3 715.9h-50.2c-4.6 0-8.3-3.7-8.3-8.3v-50.2c0-4.6 3.7-8.3 8.3-8.3h50.2c4.6 0 8.3 3.7 8.3 8.3v50.2c0 4.6-3.7 8.3-8.3 8.3z"/><path d="m1234.7 838h-50.2c-4.6 0-8.3-3.7-8.3-8.3v-50.2c0-4.6 3.7-8.3 8.3-8.3h50.2c4.6 0 8.3 3.7 8.3 8.3v50.2c0 4.6-3.7 8.3-8.3 8.3z"/><path d="m1235.1 960.2h-50.1c-4.6 0-8.3-3.7-8.3-8.3v-50.2c0-4.6 3.7-8.3 8.3-8.3h50.2c4.6 0 8.3 3.7 8.3 8.3v50.2c-.1 4.6-3.8 8.3-8.4 8.3z"/></g></g><g><g><path d="m1125.9 1088.3h-50.2c-4.6 0-8.3-3.7-8.3-8.3v-50.2c0-4.6 3.7-8.3 8.3-8.3h50.2c4.6 0 8.3 3.7 8.3 8.3v50.2c0 4.6-3.7 8.3-8.3 8.3z"/></g><g><path d="m1234.3 1088.3h-50.2c-4.6 0-8.3-3.7-8.3-8.3v-50.2c0-4.6 3.7-8.3 8.3-8.3h50.2c4.6 0 8.3 3.7 8.3 8.3v50.2c0 4.6-3.7 8.3-8.3 8.3z"/></g></g></g></g></svg>