<svg id="Layer_5" enable-background="new 0 0 64 64" height="512" viewBox="0 0 64 64" width="512" xmlns="http://www.w3.org/2000/svg"><g><path d="m31 14h2v2h-2z"/><path d="m27 14h2v2h-2z"/><path d="m39 14h2v2h-2z"/><path d="m35 14h2v2h-2z"/><path d="m23 14h2v2h-2z"/><path d="m43 14h2v2h-2z"/><path d="m19 14h2v2h-2z"/><path d="m19 18h2v2h-2z"/><path d="m35 18h2v2h-2z"/><path d="m43 18h2v2h-2z"/><path d="m39 18h2v2h-2z"/><path d="m31 18h2v2h-2z"/><path d="m23 18h2v2h-2z"/><path d="m27 18h2v2h-2z"/><path d="m43 22h2v2h-2z"/><path d="m23 22h2v2h-2z"/><path d="m27 22h2v2h-2z"/><path d="m31 22h2v2h-2z"/><path d="m19 22h2v2h-2z"/><path d="m39 22h2v2h-2z"/><path d="m35 22h2v2h-2z"/><path d="m23 26h2v2h-2z"/><path d="m27 26h2v2h-2z"/><path d="m39 26h2v2h-2z"/><path d="m19 26h2v2h-2z"/><path d="m35 26h2v2h-2z"/><path d="m43 26h2v2h-2z"/><path d="m31 26h2v2h-2z"/><path d="m56.999 50.806c.683-.244 1.275-.712 1.634-1.369.384-.703.471-1.514.244-2.285-.227-.769-.739-1.403-1.442-1.786l-8.435-4.6v-35.766h-2v-1c0-1.654-1.346-3-3-3h-24c-1.654 0-3 1.346-3 3v1h-2v35.766l-8.435 4.6c-.703.383-1.216 1.018-1.443 1.788-.226.77-.139 1.58.245 2.281.358.658.95 1.127 1.634 1.371v10.194h-2.001v2h54v-2h-2.001zm-9 10.194h-6v-7c0-.552.448-1 1-1h4c.552 0 1 .448 1 1zm-1-10h-4c-1.654 0-3 1.346-3 3v7h-5v-10.194c.147-.053.298-.096.436-.172l9.564-5.218 9.561 5.216c.139.076.291.12.439.173v10.195h-5v-7c0-1.654-1.346-3-3-3zm-4.999-17h-20c-.552 0-1-.448-1-1s.448-1 1-1h20c.552 0 1 .448 1 1s-.448 1-1 1zm-19 2h18v4.765l-8.437 4.601c-.207.113-.392.253-.563.407-.172-.154-.356-.294-.563-.407l-8.437-4.601zm8.001 14.806c.37-.132.708-.332.999-.596.291.263.629.463.999.596v10.194h-1.998zm25.957-3.089c.076.258.047.528-.081.763-.254.468-.888.657-1.358.397l-10.52-5.738-10.524 5.74c-.459.253-1.099.065-1.354-.401-.127-.233-.156-.504-.081-.759.077-.261.243-.467.481-.597l11.479-6.261 11.479 6.261c.237.13.403.336.479.595zm-37.958-43.717c0-.552.448-1 1-1h24c.552 0 1 .448 1 1v1h-26zm28 3v3h-30v-3zm-30 5h30v27.675l-2.001-1.091-1.999 1.09v-3.859c1.161-.414 2-1.514 2-2.816 0-1.654-1.346-3-3-3h-20c-1.654 0-3 1.346-3 3 0 1.302.839 2.402 2 2.816v3.859l-1.999-1.09-2.001 1.091zm-9.959 35.719c.077-.261.243-.467.481-.597l11.479-6.261 11.479 6.261c.238.13.404.336.48.595.076.258.047.528-.081.763-.254.468-.886.657-1.358.397l-10.52-5.738-10.524 5.74c-.459.253-1.099.065-1.354-.401-.128-.234-.157-.504-.082-.759zm1.96 3.087c.147-.053.298-.096.436-.172l9.564-5.218 9.561 5.216c.139.076.291.12.439.173v10.195h-5v-7c0-1.654-1.346-3-3-3h-4c-1.654 0-3 1.346-3 3v7h-5zm13 10.194h-6v-7c0-.552.448-1 1-1h4c.552 0 1 .448 1 1z"/><path d="m61 61h2v2h-2z"/><path d="m1 61h2v2h-2z"/></g></svg>